<svg height="480pt" viewBox="-87 0 480 480.00052" width="480pt" xmlns="http://www.w3.org/2000/svg"><path d="m24 0h176c13.253906 0 24 10.746094 24 24v272c0 13.253906-10.746094 24-24 24h-176c-13.253906 0-24-10.746094-24-24v-272c0-13.253906 10.746094-24 24-24zm0 0" fill="#CF000F"/><path d="m303.921875 342.398438c-6.320313-51.117188-63.601563-88.398438-79.921875-98.078126v51.679688c-.039062 13.238281-10.761719 23.960938-24 24h-16c-13.253906 0-24-10.746094-24-24v-62.28125c.351562-21.027344-15.203125-38.9375-36.070312-41.535156-11.242188-1.109375-22.425782 2.585937-30.792969 10.167968-8.367188 7.585938-13.140625 18.355469-13.136719 29.648438v80c0 .648438.082031 1.292969.242188 1.921875l40 160c.878906 3.566406 4.082031 6.074219 7.757812 6.078125h144c3.023438.035156 5.796875-1.679688 7.121094-4.398438 1.359375-2.722656 33.039062-66.960937 24.800781-133.203124zm0 0"/></svg>
