<svg height="480pt" viewBox="-32 0 480 480.00237" width="480pt" xmlns="http://www.w3.org/2000/svg"><path d="m184.207031 16.003906c4.28125-.003906 8.546875.476563 12.71875 1.429688.800781-1.824219 1.699219-3.601563 2.6875-5.328125 2.421875-4.074219 5.355469-7.824219 8.730469-11.160157-16.449219-3.6875-33.40625 3.601563-42.050781 18.074219 2.664062-.914062 5.394531-1.617187 8.167969-2.105469 3.210937-.632812 6.476562-.9375 9.746093-.910156zm0 0"/><path d="m40.75 220.332031c-8.492188-14.707031-10.796875-32.183593-6.398438-48.585937 2.296876-8.699219 6.453126-16.800782 12.175782-23.742188 2.074218-2.585937 4.359375-4.992187 6.832031-7.203125-18-2.167969-35.671875 6.066407-45.589844 21.238281-9.921875 15.175782-10.371093 34.667969-1.164062 50.285157l52.320312 90.476562 45.28125 65.203125v104c0 4.417969 3.582031 8 8 8h24v-106.992187l-42.800781-61.601563zm0 0"/><path d="m117.09375 127.808594c3.851562 1.363281 7.574219 3.074218 11.113281 5.113281v-60.917969c-.035156-14.621094 5.675781-28.667968 15.902344-39.113281-2.597656-.5625-5.246094-.859375-7.902344-.886719-22.09375 0-40 17.90625-40 40v52.34375c5.589844-.019531 11.160157.695313 16.566407 2.125 1.378906.363282 2.855468.851563 4.320312 1.335938zm0 0"/><path d="m376.207031 80.003906c-8.660156-.035156-17.09375 2.773438-24 8v-16c0-22.09375-17.910156-40-40-40-8.660156-.035156-17.09375 2.773438-24 8-.007812-15.167968-8.589843-29.023437-22.164062-35.785156s-29.808594-5.265625-41.917969 3.863281c-4.332031 3.226563-7.953125 7.3125-10.636719 12-3.480469 6.0625-5.300781 12.933594-5.28125 19.921875-6.90625-5.226562-15.339843-8.035156-24-8-2.285156-.03125-4.5625.183594-6.800781.636719-6.25 1.007813-12.15625 3.535156-17.199219 7.363281v.078125s0-.078125-.082031 0c-4.332031 3.226563-7.953125 7.3125-10.636719 12-3.480469 6.0625-5.300781 12.933594-5.28125 19.921875v103.359375l-6.402343-11.039062c-5.714844-9.925781-14.796876-17.476563-25.597657-21.28125-1.199219-.402344-2.402343-.800781-3.601562-1.121094-12.292969-3.242187-25.367188-1.515625-36.398438 4.800781-.042969 0-.082031.035156-.082031.078125-5.121094 2.925781-9.628906 6.808594-13.277344 11.441407-4.238281 5.152343-7.320312 11.15625-9.042968 17.601562-3.300782 12.3125-1.574219 25.4375 4.800781 36.480469l52.320312 90.476562 45.28125 65.203125v112h224c4.417969 0 8-3.582031 8-8v-104l19.757813-21.839844c7.917968-9.9375 12.230468-22.261718 12.242187-34.960937v-191.199219c0-22.09375-17.910156-40-40-40zm-32.480469 356.796875c-2.601562 11.414063-12.855468 19.433594-24.558593 19.203125h-150.960938v-48h152c7.207031-.003906 14.035157 3.234375 18.59375 8.816406 4.558594 5.582032 6.367188 12.921876 4.925781 19.980469zm24.480469-52.796875h-200v-16h200zm24-88c-.023437 12.113282-3.949219 23.894532-11.199219 33.597656l-14.402343 19.199219c-2.648438 3.535157-7.664063 4.253907-11.199219 1.601563s-4.25-7.664063-1.601562-11.199219l14.402343-19.199219c5.179688-6.933594 7.984375-15.347656 8-24v-128c0-4.417968 3.582031-8 8-8s8 3.582032 8 8zm0 0"/></svg>